<?xml version="1.0" encoding="UTF-8" standalone="no"?>
<svg
   viewBox="409.289 277.787 163.2793 114.30078"
   width="163.2793"
   height="114.30078"
   version="1.1"
   id="svg27"
   sodipodi:docname="YouTube_Logo_2017.svg"
   inkscape:version="1.2.2 (732a01da63, 2022-12-09)"
   xmlns:inkscape="http://www.inkscape.org/namespaces/inkscape"
   xmlns:sodipodi="http://sodipodi.sourceforge.net/DTD/sodipodi-0.dtd"
   xmlns="http://www.w3.org/2000/svg"
   xmlns:svg="http://www.w3.org/2000/svg">
  <defs
     id="defs31" />
  <sodipodi:namedview
     id="namedview29"
     pagecolor="#505050"
     bordercolor="#eeeeee"
     borderopacity="1"
     inkscape:showpageshadow="0"
     inkscape:pageopacity="0"
     inkscape:pagecheckerboard="0"
     inkscape:deskcolor="#505050"
     showgrid="false"
     inkscape:zoom="2.0647238"
     inkscape:cx="139.24381"
     inkscape:cy="72.164616"
     inkscape:window-width="1280"
     inkscape:window-height="961"
     inkscape:window-x="1912"
     inkscape:window-y="45"
     inkscape:window-maximized="1"
     inkscape:current-layer="svg27" />
  <g
     class="style-scope yt-icon"
     id="g6"
     transform="matrix(5.715038,0,0,5.715038,409.28876,277.78723)">
    <path
       id="path2"
       class="style-scope yt-icon"
       d="m 14.284929,-4.0244702e-5 c 0,0 -8.9344288,1.7113775e-5 -11.1616165,0.597382294702 C 1.8933137,0.92659872 0.92668096,1.8932214 0.59742429,3.1232302 5.9108246e-5,5.350408 4.1994471e-5,9.9999616 4.1994471e-5,9.9999616 c 0,0 1.7113775e-5,4.6495334 0.597382295529,6.8767314 0.32925667,1.229999 1.29588941,2.196689 2.52588821,2.525888 2.2271877,0.5974 11.1616165,0.597382 11.1616165,0.597382 0,0 8.93486,1.8e-5 11.161958,-0.597382 1.229999,-0.329199 2.196689,-1.295889 2.525888,-2.525888 0.5974,-2.227198 0.597383,-6.8767314 0.597383,-6.8767314 0,0 -0.0024,-4.6495536 -0.597383,-6.8767314 C 27.643576,1.8932214 26.676886,0.92659872 25.446887,0.59734205 23.219789,-2.3130927e-5 14.284929,-4.0244702e-5 14.284929,-4.0244702e-5 Z M 11.425149,5.7154183 18.847658,10.000303 11.425149,14.28553 Z"
       style="fill:#209060;fill-opacity:1" />
  </g>
</svg>
